<?xml version="1.0" standalone="no"?>
<!DOCTYPE svg PUBLIC "-//W3C//DTD SVG 1.1//EN" "http://www.w3.org/Graphics/SVG/1.1/DTD/svg11.dtd" >
<svg xmlns="http://www.w3.org/2000/svg" xmlns:xlink="http://www.w3.org/1999/xlink" version="1.1">
<metadata></metadata>
<defs>
<font id="gandhi_sansregular" horiz-adv-x="1126" >
<font-face units-per-em="2048" ascent="1567" descent="-481" />
<missing-glyph horiz-adv-x="471" />
<glyph horiz-adv-x="0" />
<glyph horiz-adv-x="682" />
<glyph unicode=" "  horiz-adv-x="471" />
<glyph unicode="&#x09;" horiz-adv-x="471" />
<glyph unicode="&#xa0;" horiz-adv-x="471" />
<glyph unicode="!" horiz-adv-x="573" d="M334 397h-94l-66 975h225zM162 96q0 51 37 88t88 37t88 -37t37 -88t-37 -88t-88 -37t-88 37t-37 88z" />
<glyph unicode="&#x22;" horiz-adv-x="763" d="M270 864h-84l-43 459h170zM578 864h-84l-43 459h170z" />
<glyph unicode="#" d="M92 764v104h266l56 332h106l-55 -332h283l55 332h106l-55 -332h221v-104h-237l-47 -277h258v-104h-275l-55 -332h-107l56 332h-283l-55 -332h-107l56 332h-213v104h229l47 277h-250zM449 764l-48 -277h283l47 277h-282z" />
<glyph unicode="$" d="M983 344q0 -149 -98 -249t-267 -120v-208h-104v204q-222 5 -373 92l23 150q176 -100 350 -104v501q-12 4 -49 23q-70 33 -117.5 62.5t-91 71.5t-65 96.5t-21.5 123.5q0 152 95 247t257 114v219h105v-215q169 -9 307 -84l-27 -148q-135 82 -280 88v-467q44 -21 73.5 -36.5 t70.5 -40t68 -46t56.5 -52.5t47 -63t29 -73t11.5 -86zM815 319q0 78 -48.5 131.5t-148.5 108.5v-442q91 18 144 71t53 131zM336 1006q0 -70 42 -115t144 -98v411q-186 -32 -186 -198z" />
<glyph unicode="%" horiz-adv-x="1601" d="M719 1034q0 -160 -87.5 -246t-240.5 -86q-142 0 -225.5 91.5t-83.5 228.5q0 156 87 243t239 87q143 0 227 -89t84 -229zM590 1030q0 114 -54 166.5t-139 52.5q-81 0 -133.5 -54.5t-52.5 -170.5q0 -113 55 -166t137 -53q84 0 135.5 55t51.5 170zM1520 303 q0 -160 -87.5 -246t-240.5 -86q-142 0 -225.5 91.5t-83.5 228.5q0 156 86.5 243t238.5 87q143 0 227.5 -89t84.5 -229zM1391 299q0 114 -54 166.5t-139 52.5q-81 0 -133.5 -54.5t-52.5 -170.5q0 -113 55 -166t137 -53q84 0 135.5 55t51.5 170zM365 -29l-99 70l971 1311 l98 -70z" />
<glyph unicode="&#x26;" horiz-adv-x="1409" d="M911 117l-28 35q-181 -181 -398 -181q-109 0 -200.5 40t-150 125t-58.5 200q0 276 319 414q-67 84 -98 146t-31 136q0 130 88.5 217.5t239.5 87.5q141 0 228 -78t87 -217q0 -200 -258 -368l252 -301q57 72 124.5 175t115.5 191h168q-135 -234 -320 -473l39 -45 q51 -61 84.5 -76.5t102.5 -15.5h61v-129q-65 -10 -137 -10q-69 0 -122 30t-108 97zM496 104q79 0 159 41t144 109l-322 395q-117 -45 -182.5 -130.5t-65.5 -184.5q0 -105 73 -167.5t194 -62.5zM420 1038q0 -54 37 -115t116 -155q187 120 187 274q0 68 -44.5 119t-121.5 51 q-72 0 -123 -47t-51 -127z" />
<glyph unicode="'" horiz-adv-x="456" d="M270 864h-84l-43 459h170z" />
<glyph unicode="(" horiz-adv-x="907" d="M287 643q0 -266 131 -501.5t346 -360.5l-51 -105q-175 84 -308 237.5t-202.5 342.5t-69.5 387t69.5 387t202.5 342.5t308 237.5l51 -105q-215 -125 -346 -360.5t-131 -501.5z" />
<glyph unicode=")" horiz-adv-x="907" d="M621 643q0 266 -131.5 501.5t-346.5 360.5l52 105q175 -84 307.5 -237.5t202 -342t69.5 -387.5t-69.5 -387.5t-202 -342t-307.5 -237.5l-52 105q215 125 346.5 360.5t131.5 501.5z" />
<glyph unicode="*" horiz-adv-x="880" d="M481 926l21 -305h-123l20 305l-256 -170l-61 106l276 135l-276 133l61 107l256 -170l-20 305h123l-21 -305l256 170l62 -107l-277 -133l277 -135l-62 -106z" />
<glyph unicode="+" d="M1024 569h-406v-403h-110v403h-406v107h406v401h110v-401h406v-107z" />
<glyph unicode="," horiz-adv-x="512" d="M162 -291l-82 58q110 143 110 268q0 92 -28 174h178q22 -53 22 -125q0 -91 -49 -188.5t-151 -186.5z" />
<glyph unicode="-" horiz-adv-x="716" d="M72 451v122h573v-122h-573z" />
<glyph unicode="." horiz-adv-x="512" d="M131 96q0 51 37 88t88 37t88 -37t37 -88t-37 -88t-88 -37t-88 37t-37 88z" />
<glyph unicode="/" horiz-adv-x="1097" d="M1063 1587l-897 -2068h-131l897 2068h131z" />
<glyph unicode="0" d="M563 102q101 0 171 73.5t103 197.5t33 289q0 257 -82.5 408t-224.5 151q-147 0 -227 -149.5t-80 -409.5q0 -165 33.5 -289.5t103.5 -197.5t170 -73zM563 -29q-211 0 -339 188.5t-128 502.5q0 149 30 274t87.5 218t147 145.5t202.5 52.5t202.5 -52.5t147 -145.5t87.5 -218 t30 -274q0 -315 -127.5 -503t-339.5 -188z" />
<glyph unicode="1" d="M969 0h-758v115l307 8v1055l-307 -33v115l381 75h88v-1212l289 -8v-115z" />
<glyph unicode="2" d="M113 0v63q164 151 276 265.5t206.5 233t140.5 221.5t46 196q0 110 -67 171.5t-172 61.5q-93 0 -187 -42t-168 -113l-65 114q76 82 187.5 131.5t238.5 49.5q182 0 288.5 -94t106.5 -261q0 -87 -34 -183t-85.5 -179.5t-129 -175.5t-147 -162.5t-155.5 -149.5h596l-8 -147 h-868z" />
<glyph unicode="3" d="M526 -29q-112 0 -221 43.5t-182 116.5l92 115q59 -59 141.5 -98t169.5 -39q133 0 210 69t77 178q0 69 -33 118.5t-91 77t-126.5 40t-150.5 12.5h-84v129q428 30 428 289q0 84 -55 137t-152 53q-95 0 -188.5 -46t-155.5 -109l-66 114q75 80 188.5 130.5t235.5 50.5 q99 0 179 -33.5t132 -108t52 -180.5q0 -116 -70.5 -206.5t-185.5 -129.5q135 -18 221 -106t86 -221q-2 -171 -128.5 -283.5t-322.5 -112.5z" />
<glyph unicode="4" d="M686 0v379h-631v65l693 891h96v-819h217v-137h-217v-379h-158zM686 1044l-403 -528h403v528z" />
<glyph unicode="5" d="M543 -29q-111 0 -217 42t-187 120l90 115q142 -139 322 -139q116 0 201.5 72t85.5 192q0 140 -113.5 206t-304.5 66h-215l61 678h649l-8 -145h-510l-30 -387h71q84 0 158.5 -10.5t150 -39t129 -73t87.5 -119t34 -170.5q0 -179 -126 -293.5t-328 -114.5z" />
<glyph unicode="6" d="M928 1221q-127 -24 -230.5 -70.5t-175.5 -108.5t-120 -131t-78 -149q125 61 282 61q194 0 303 -105t109 -292q0 -88 -30.5 -169.5t-86 -145.5t-142 -102t-190.5 -38q-215 0 -333.5 145t-118.5 388q0 166 61 313t167 254t247.5 179.5t304.5 101.5zM586 682 q-161 0 -303 -76q-7 -68 -7 -110q0 -169 77 -279.5t210 -110.5q134 0 214.5 87.5t80.5 214.5q0 132 -72 203t-200 71z" />
<glyph unicode="7" d="M217 0l604 1176h-692l10 147h867v-92l-613 -1231h-176z" />
<glyph unicode="8" d="M127 317q0 124 74 225.5t194 155.5q-108 62 -168.5 138t-60.5 188q0 142 117.5 235t279.5 93q176 0 291 -87t115 -233q0 -118 -66.5 -195t-187.5 -132q70 -38 118 -73t87 -79t58 -98t19 -121q0 -108 -59 -192t-156.5 -127.5t-214.5 -43.5q-206 0 -323 93.5t-117 252.5z M844 330q0 39 -17 75t-42 63.5t-70.5 58t-84 51.5t-100.5 53q-108 -42 -175.5 -124t-67.5 -177q0 -107 74 -167.5t198 -60.5q126 0 205.5 61t79.5 167zM328 1026q0 -42 14.5 -75t51.5 -64t78.5 -55t115.5 -62q225 97 225 256q0 92 -73.5 142.5t-172.5 50.5 q-101 0 -170 -52.5t-69 -140.5z" />
<glyph unicode="9" d="M199 102q127 24 230.5 70t175.5 108t120 130.5t78 148.5q-131 -59 -283 -59q-194 0 -302.5 105t-108.5 292q0 88 30 169.5t85.5 145.5t142 102t190.5 38q216 0 334.5 -145t118.5 -388q0 -166 -61 -313t-167.5 -254t-248 -179.5t-304.5 -101.5zM541 641q159 0 301 76 q8 49 8 110q0 169 -77 279.5t-210 110.5q-134 0 -214.5 -87.5t-80.5 -214.5q0 -132 72.5 -203t200.5 -71z" />
<glyph unicode=":" horiz-adv-x="512" d="M131 96q0 51 37 88t88 37t88 -37t37 -88t-37 -88t-88 -37t-88 37t-37 88zM131 731q0 51 37 88t88 37t88 -37t37 -88t-37 -88t-88 -37t-88 37t-37 88z" />
<glyph unicode=";" horiz-adv-x="512" d="M131 731q0 51 37 88t88 37t88 -37t37 -88t-37 -88t-88 -37t-88 37t-37 88zM162 -291l-82 58q113 153 113 274q0 82 -41 168h182q28 -51 28 -125q0 -91 -49 -188.5t-151 -186.5z" />
<glyph unicode="&#x3c;" d="M154 573v103l749 399l55 -100l-663 -350l663 -351l-55 -100z" />
<glyph unicode="=" d="M1024 375h-922v106h922v-106zM1024 764h-922v106h922v-106z" />
<glyph unicode="&#x3e;" d="M973 670v-103l-750 -399l-55 100l663 350l-663 351l55 100z" />
<glyph unicode="?" horiz-adv-x="839" d="M270 438q-18 56 -18 135q0 60 19 110.5t49 86t66.5 67t73 60t66.5 57.5t49 67t19 81q0 68 -61.5 116t-135.5 48q-61 0 -130 -21.5t-111 -60.5l-54 119q60 52 141 75t156 23q85 0 155 -25t113.5 -66.5t67 -92.5t23.5 -105q0 -64 -19.5 -117.5t-51 -91t-69.5 -70.5 t-76.5 -63t-70 -61t-51 -71.5t-19.5 -88.5q0 -61 9 -111h-140zM223 96q0 51 37 88t88 37t88 -37t37 -88t-37 -88t-88 -37t-88 37t-37 88z" />
<glyph unicode="@" horiz-adv-x="1935" d="M96 451q0 155 38 294t114 253.5t183.5 198t253 129.5t316.5 46q125 0 243 -28.5t224.5 -90.5t186.5 -151t127 -219t47 -285q0 -274 -141 -448.5t-369 -174.5q-152 0 -184 123q-49 -53 -123 -90t-160 -37q-117 0 -191.5 61t-74.5 171q0 52 21 96.5t47 75t81 58.5 t87.5 42.5t105.5 32t97 22t96 16.5q11 2 16 3v135q0 89 -37 133.5t-146 44.5q-143 0 -307 -82l-24 119q78 45 186 72.5t197 27.5q286 0 286 -288v-559q0 -66 78 -66q153 0 254.5 140.5t101.5 373.5q0 134 -39.5 247.5t-107.5 193t-160.5 135t-198 82t-219.5 26.5 q-176 0 -324.5 -59.5t-254 -167t-164.5 -263.5t-59 -343q0 -382 226 -602t626 -220q168 0 323 53t275 142l49 -74q-124 -93 -298 -151t-351 -58q-191 0 -348.5 46.5t-268.5 128.5t-187.5 197t-112.5 250t-36 288zM743 207q0 -47 33.5 -76t85.5 -29q70 0 146 44t129 106v184 q-91 -17 -157 -35.5t-122.5 -45t-85.5 -63.5t-29 -85z" />
<glyph unicode="A" horiz-adv-x="1310" d="M1065 0l-147 393h-537l-150 -393h-170l545 1372h105l538 -1372h-184zM653 1102l-219 -570h432z" />
<glyph unicode="B" horiz-adv-x="1169" d="M174 0v1372h385q215 0 321.5 -76t106.5 -249q0 -114 -57.5 -194t-155.5 -116q137 -23 215 -117t78 -235q0 -173 -121.5 -279t-333.5 -106h-438zM338 653v-516h258q295 0 295 252q0 128 -92.5 196t-259.5 68h-201zM338 1235v-444h178q137 0 217 63.5t80 177.5 q0 110 -66.5 156.5t-197.5 46.5h-211z" />
<glyph unicode="C" horiz-adv-x="1294" d="M795 -29q-315 0 -498.5 188t-183.5 509q0 341 187.5 537t496.5 196q100 0 203 -22.5t174 -57.5l-29 -156q-69 38 -159 62t-179 24q-248 0 -384 -154.5t-136 -428.5q0 -253 146 -399t392 -146q95 0 189.5 25.5t154.5 62.5l23 -150q-75 -40 -186.5 -65t-210.5 -25z" />
<glyph unicode="D" horiz-adv-x="1423" d="M174 0v1372h438q151 0 270.5 -34.5t199 -94.5t131.5 -147t75 -187.5t23 -220.5q0 -109 -24 -207.5t-77 -187t-131 -153t-193.5 -102.5t-256.5 -38h-455zM338 1235v-1098h240q116 0 209.5 28.5t158 78.5t108 120t63.5 151t20 173q0 257 -133.5 402t-411.5 145h-254z" />
<glyph unicode="E" horiz-adv-x="1054" d="M174 0v1372h772v-137h-608v-444h489v-138h-489v-516h614v-137h-778z" />
<glyph unicode="F" horiz-adv-x="1030" d="M174 0v1372h774v-137h-610v-453h506v-139h-506v-643h-164z" />
<glyph unicode="G" horiz-adv-x="1402" d="M809 -29q-317 0 -506.5 182.5t-189.5 510.5q0 345 183.5 541t524.5 196q232 0 408 -90l-31 -152q-71 39 -168 63.5t-196 24.5q-267 0 -407 -149t-140 -434q0 -260 150 -401.5t397 -141.5q154 0 262 41v373h-265v137h429v-613q-210 -88 -451 -88z" />
<glyph unicode="H" horiz-adv-x="1468" d="M174 0v1372h164v-584h792v584h164v-1372h-164v651h-792v-651h-164z" />
<glyph unicode="I" horiz-adv-x="512" d="M174 0v1372h164v-1372h-164z" />
<glyph unicode="J" horiz-adv-x="534" d="M360 1372v-1036q0 -231 -72.5 -358.5t-264.5 -200.5l-64 117q143 67 190.5 155t47.5 275v1048h163z" />
<glyph unicode="K" horiz-adv-x="1234" d="M1153 0q-49 -10 -82 -10q-66 0 -108.5 26t-92.5 90l-491 605l563 661h203l-576 -649l441 -535q33 -39 54 -49t62 -10h27v-129zM174 0v1372h164v-1372h-164z" />
<glyph unicode="L" horiz-adv-x="1054" d="M174 0v1372h164v-1237h635v-135h-799z" />
<glyph unicode="M" horiz-adv-x="1701" d="M174 0v1372h197l485 -1118l490 1118h182v-1372h-164v1038l-461 -1038h-102l-463 1047v-1047h-164z" />
<glyph unicode="N" horiz-adv-x="1421" d="M174 0v1372h186l723 -991v991h164v-1372h-94l-815 1118v-1118h-164z" />
<glyph unicode="O" horiz-adv-x="1482" d="M739 -29q-127 0 -232 38.5t-177 105.5t-121.5 159t-72.5 196.5t-23 221.5q0 112 23 214.5t73 193.5t122.5 157.5t177 105t230.5 38.5q158 0 281 -56.5t198 -155t113.5 -224t38.5 -271.5q0 -119 -23.5 -225.5t-74 -198t-123.5 -158t-178 -104t-232 -37.5zM739 115 q147 0 251 76.5t153 205t49 297.5q0 167 -49 291.5t-152.5 197t-251.5 72.5q-111 0 -198 -44t-141 -122t-81.5 -178.5t-27.5 -218.5q0 -124 27.5 -228t81.5 -182.5t140.5 -122.5t198.5 -44z" />
<glyph unicode="P" horiz-adv-x="1136" d="M502 573h-164v-573h-164v1372h406q209 0 326.5 -91t117.5 -277q0 -198 -129.5 -314.5t-392.5 -116.5zM338 1235v-524h164q348 0 348 293q0 231 -307 231h-205z" />
<glyph unicode="Q" horiz-adv-x="1482" d="M1212 -481q-45 0 -92.5 19t-95 55t-90 76.5t-89 97t-81 102t-76.5 104.5q-117 8 -213 50t-162.5 109t-112 156.5t-66.5 190.5t-21 213t23 214.5t73 193.5t122.5 157.5t177 105t230.5 38.5q158 0 281 -56.5t198 -155t113.5 -224t38.5 -271.5q0 -132 -30 -248.5t-89 -212 t-154 -161t-218 -88.5q130 -177 212 -249.5t164 -72.5h58v-127q-46 -16 -101 -16zM739 115q147 0 251 76.5t153 205t49 297.5q0 167 -49 291.5t-152.5 197t-251.5 72.5q-111 0 -198 -44t-141 -122t-81.5 -178.5t-27.5 -218.5q0 -124 27.5 -228t81.5 -182.5t140.5 -122.5 t198.5 -44z" />
<glyph unicode="R" horiz-adv-x="1222" d="M1151 0q-45 -10 -76 -10q-66 0 -116 29.5t-95 103.5l-217 360q-18 30 -26 42.5t-25 32.5t-32.5 27.5t-40.5 14t-58 6.5h-127v-606h-164v1372h406q205 0 320.5 -93t115.5 -265q0 -148 -75.5 -252t-233.5 -139q64 -35 120 -131l179 -293q24 -40 46.5 -55t53.5 -15h45v-129z M338 1235v-485h225q151 0 217 68.5t66 195.5q0 112 -79.5 166.5t-227.5 54.5h-201z" />
<glyph unicode="S" horiz-adv-x="1028" d="M483 -29q-121 0 -223 29t-172 68l23 153q182 -108 364 -108q124 0 202.5 62.5t78.5 176.5q0 28 -7 52.5t-16.5 43t-31.5 39t-38.5 34t-51.5 33.5t-57 31.5t-69 35.5t-73 38q-70 36 -117.5 68t-91 76.5t-65 101t-21.5 127.5q0 176 119.5 272.5t306.5 96.5q205 0 338 -88 l-27 -152q-138 99 -305 99q-122 0 -194 -60.5t-72 -148.5q0 -84 58.5 -140t203.5 -129q154 -78 215 -122q163 -118 170 -287v-15q0 -173 -126 -280t-321 -107z" />
<glyph unicode="T" horiz-adv-x="1277" d="M557 0v1235h-465v137h1094v-137h-465v-1235h-164z" />
<glyph unicode="U" horiz-adv-x="1374" d="M688 -29q-113 0 -207.5 30.5t-165.5 89.5t-111 152t-40 212v917h164v-891q0 -176 93 -270t273 -94q177 0 265 93.5t88 270.5v891h163v-917q0 -228 -144 -356t-378 -128z" />
<glyph unicode="V" horiz-adv-x="1277" d="M236 1372l409 -1081l395 1081h177l-531 -1372h-92l-533 1372h175z" />
<glyph unicode="W" horiz-adv-x="1902" d="M872 1120l-92 252h183l370 -1089l334 1089h174l-469 -1372h-86l-336 911l-332 -911h-96l-461 1372h172l345 -1089z" />
<glyph unicode="X" horiz-adv-x="1282" d="M72 0l475 729l-424 643h194l332 -516l324 516h188l-428 -649l477 -723h-192l-383 594l-375 -594h-188z" />
<glyph unicode="Y" horiz-adv-x="1239" d="M535 0v549l-474 823h189l371 -676l378 676h179l-480 -823v-549h-163z" />
<glyph unicode="Z" horiz-adv-x="1245" d="M102 0v82l781 1153h-742v137h969v-86l-784 -1149h807v-137h-1031z" />
<glyph unicode="[" horiz-adv-x="835" d="M713 1505h-398v-1712h398v-115h-549v1942h549v-115z" />
<glyph unicode="\" horiz-adv-x="1097" d="M932 -481l-897 2068h131l897 -2068h-131z" />
<glyph unicode="]" horiz-adv-x="835" d="M520 1505h-397v115h549v-1942h-549v115h397v1712z" />
<glyph unicode="^" d="M512 1352h102l400 -750l-101 -55l-350 663l-350 -663l-100 55z" />
<glyph unicode="_" d="M1137 -219v-107h-1147v107h1147z" />
<glyph unicode="`" horiz-adv-x="819" d="M592 1180l-70 -37l-295 342l179 41z" />
<glyph unicode="a" horiz-adv-x="985" d="M909 88v-86q-70 -18 -157 -18q-59 0 -89 28t-34 92q-46 -53 -121 -93t-166 -40q-117 0 -191.5 61t-74.5 171q0 52 21 96.5t47 75t81 58.5t87.5 42.5t105.5 32t97 22t96 16.5q3 1 4.5 1t3.5 0.5l4 1t4 0.5v135q0 89 -37 133.5t-146 44.5q-143 0 -307 -82l-24 119 q82 47 189 73.5t194 26.5q286 0 286 -288v-555q0 -42 20 -55t60 -13h47zM233 207q0 -47 33.5 -76t85.5 -29q70 0 146 44t129 106v184q-91 -17 -157 -35.5t-122.5 -45t-85.5 -63.5t-29 -85z" />
<glyph unicode="b" horiz-adv-x="1112" d="M621 999q182 0 288.5 -139.5t106.5 -353.5q0 -258 -128.5 -396.5t-342.5 -138.5q-77 0 -151 21t-126 51l-55 -72h-61v1479l155 37v-621q141 133 314 133zM586 856q-75 0 -149 -39t-130 -100v-545q96 -66 238 -66q147 0 229 99t82 295q0 173 -68.5 264.5t-201.5 91.5z" />
<glyph unicode="c" horiz-adv-x="968" d="M580 -29q-100 0 -185.5 29.5t-153.5 88t-106.5 155t-38.5 221.5q0 114 29.5 209.5t87.5 169t153.5 114.5t219.5 41q68 0 142.5 -18.5t131.5 -54.5l-33 -123q-116 59 -239 59q-163 0 -247.5 -107t-84.5 -284q0 -174 87 -267t257 -93q143 0 256 65l27 -123 q-54 -35 -134 -58.5t-169 -23.5z" />
<glyph unicode="d" horiz-adv-x="1112" d="M494 -29q-122 0 -213.5 66t-138 177.5t-46.5 250.5q0 258 129.5 396t343.5 138q125 0 236 -53v510l156 31v-1487h-156v102q-139 -131 -311 -131zM522 113q153 0 283 141v545q-104 63 -234 63q-147 0 -231 -98.5t-84 -292.5q0 -170 67.5 -264t198.5 -94z" />
<glyph unicode="e" horiz-adv-x="1021" d="M887 193l26 -123q-58 -43 -149 -71t-191 -28q-210 0 -343.5 129.5t-133.5 366.5q0 246 132 389t333 143q365 0 365 -366q0 -59 -8 -125h-664v-41q0 -183 95 -270.5t251 -87.5q73 0 150 23.5t137 60.5zM274 627h486q4 24 4 43q0 204 -203 204q-111 0 -184 -64t-103 -183z " />
<glyph unicode="f" horiz-adv-x="673" d="M45 844v127h158v88q0 107 32 191.5t86 134.5t121.5 76t143.5 26q46 0 84 -10l-17 -123h-24q-136 0 -203.5 -68t-67.5 -225v-90h260v-127h-260v-844h-155v844h-158z" />
<glyph unicode="g" horiz-adv-x="1112" d="M487 -344q75 0 130 13t100 45.5t67.5 93t22.5 149.5v145q-69 -64 -144.5 -97.5t-173.5 -33.5q-91 0 -166.5 39t-124.5 106.5t-75.5 156.5t-26.5 190q0 258 130 397t343 139q205 0 392 -96v-962q0 -422 -482 -422q-80 0 -176 16.5t-166 42.5l29 137q61 -24 156 -41.5 t165 -17.5zM518 109q81 0 163.5 46.5t123.5 96.5v553q-43 26 -105.5 42.5t-124.5 16.5q-160 0 -239.5 -106.5t-79.5 -286.5q0 -168 67 -265t195 -97z" />
<glyph unicode="h" horiz-adv-x="1110" d="M152 0v1456l155 31v-625q68 62 155.5 99.5t180.5 37.5q156 0 239 -89.5t83 -245.5v-664h-156v641q0 98 -53.5 156.5t-153.5 58.5q-80 0 -157.5 -39.5t-137.5 -99.5v-717h-155z" />
<glyph unicode="i" horiz-adv-x="458" d="M152 0v969l155 30v-999h-155zM229 1206q-47 0 -80.5 32.5t-33.5 78.5t33.5 78t80.5 32q46 0 80.5 -32.5t34.5 -77.5t-34.5 -78t-80.5 -33z" />
<glyph unicode="j" horiz-adv-x="477" d="M326 999v-1052q0 -212 -101 -319t-260 -107q-53 0 -86 10l-8 119h41q131 0 194.5 72t63.5 223v1024zM248 1217q-47 0 -81 32t-34 78t34 78.5t81 32.5q46 0 80 -33t34 -78t-34 -77.5t-80 -32.5z" />
<glyph unicode="k" horiz-adv-x="1030" d="M985 2q-52 -20 -106 -20q-74 0 -113.5 23t-77.5 75l-330 450l385 441h203l-414 -434l289 -383q51 -66 164 -66v-86zM152 0v1450l155 37v-1487h-155z" />
<glyph unicode="l" horiz-adv-x="458" d="M152 0v1450l155 37v-1487h-155z" />
<glyph unicode="m" horiz-adv-x="1703" d="M152 0v969l155 30v-137q155 137 324 137q202 0 278 -163q173 163 346 163q304 -3 304 -344v-655h-156v631q0 47 -7 83t-25.5 69.5t-55.5 51.5t-92 19q-81 0 -157 -43t-126 -98v-713h-156v635q0 221 -190 221q-79 0 -155.5 -42t-131.5 -97v-717h-155z" />
<glyph unicode="n" horiz-adv-x="1110" d="M152 0v969l155 30v-137q68 62 155.5 99.5t180.5 37.5q156 0 239 -89.5t83 -245.5v-664h-156v641q0 98 -53.5 156.5t-153.5 58.5q-80 0 -157.5 -39.5t-137.5 -99.5v-717h-155z" />
<glyph unicode="o" horiz-adv-x="1118" d="M559 98q145 0 222 106t77 281q0 178 -81 282.5t-218 104.5q-141 0 -220 -103.5t-79 -283.5q0 -174 77.5 -280.5t221.5 -106.5zM559 -29q-210 0 -336.5 140t-126.5 374q0 149 51 263.5t157.5 182.5t254.5 68t254.5 -68t157.5 -182.5t51 -263.5q0 -235 -126 -374.5 t-337 -139.5z" />
<glyph unicode="p" horiz-adv-x="1112" d="M307 23v-476h-155v1422l155 30v-135q147 135 309 135q185 0 292.5 -136.5t107.5 -356.5q0 -255 -128 -395t-339 -140q-121 0 -242 52zM594 858q-78 0 -155 -38.5t-132 -102.5v-545q98 -66 242 -66q141 0 224 97.5t83 300.5q0 166 -67 260t-195 94z" />
<glyph unicode="q" horiz-adv-x="1112" d="M961 -453h-156v555q-70 -64 -142.5 -97.5t-166.5 -33.5q-185 0 -292.5 140.5t-107.5 363.5q0 246 128 385t343 139q197 0 394 -94v-1358zM528 113q81 0 158 45t119 96v549q-42 27 -106.5 44t-127.5 17q-154 0 -234.5 -104t-80.5 -277q0 -370 272 -370z" />
<glyph unicode="r" horiz-adv-x="745" d="M700 969l-18 -140q-38 7 -59 7q-72 0 -142.5 -43t-173.5 -146v-647h-155v969l155 30v-202q37 41 56.5 61.5t54.5 52.5t61 47.5t61.5 28t71.5 12.5q26 0 52 -10t36 -20z" />
<glyph unicode="s" horiz-adv-x="827" d="M741 268q0 -139 -106 -218t-264 -79q-76 0 -155.5 21t-139.5 53l28 131q50 -31 130 -54.5t147 -23.5q95 0 153 39.5t58 118.5q0 57 -43.5 90.5t-145.5 73.5q-41 16 -61.5 24.5t-58 26.5t-57.5 32t-46.5 37.5t-40 47.5t-23.5 56.5t-10 70.5q0 134 97 209t250 75 q67 0 139 -17.5t113 -43.5l-29 -129q-41 24 -104 41.5t-126 17.5q-84 0 -137 -37t-53 -102q0 -21 5 -38t18.5 -31.5t25.5 -24.5t36.5 -21.5t39.5 -18t48 -19t50 -19.5q49 -20 76.5 -32.5t68.5 -39t62.5 -53.5t38 -69.5t16.5 -94.5z" />
<glyph unicode="t" horiz-adv-x="765" d="M45 844v127h166l53 256h103v-256h313v-127h-313v-592q0 -148 122 -148q38 0 91 15t88 31l22 -121q-40 -25 -105.5 -41.5t-125.5 -16.5q-129 0 -188.5 68.5t-59.5 212.5v592h-166z" />
<glyph unicode="u" horiz-adv-x="1081" d="M930 971v-971h-156v104q-151 -133 -336 -133q-147 0 -227 90t-80 265v645h156v-652q0 -113 48 -161.5t138 -48.5q83 0 163 40t138 105v717h156z" />
<glyph unicode="v" horiz-adv-x="1019" d="M453 0l-398 971h176l285 -742l277 742h172l-400 -971h-112z" />
<glyph unicode="w" horiz-adv-x="1536" d="M721 971h106l250 -711l232 711h172l-359 -971h-112l-242 672l-238 -672h-112l-363 971h178l248 -715z" />
<glyph unicode="x" horiz-adv-x="1017" d="M55 0l359 510l-324 461h197l235 -346l209 346h197l-318 -471l353 -500h-195l-270 391l-252 -391h-191z" />
<glyph unicode="y" horiz-adv-x="1024" d="M969 971l-400 -1094q-19 -54 -40.5 -98.5t-56 -95t-75 -84.5t-98.5 -57t-125 -23q-84 0 -149 26l26 121q53 -16 123 -16q97 0 163.5 90.5t127.5 269.5l-404 961h177l305 -760l254 760h172z" />
<glyph unicode="z" horiz-adv-x="993" d="M86 0v84l580 760h-551v127h774v-84l-588 -760h606v-127h-821z" />
<glyph unicode="{" horiz-adv-x="954" d="M102 711q147 26 197.5 86t50.5 207v305q0 94 21.5 155t69.5 95t113.5 47.5t164.5 13.5h112v-113h-100q-61 0 -98 -6.5t-68.5 -27t-45 -61t-13.5 -105.5v-310q0 -150 -55 -228.5t-197 -117.5q140 -41 196 -120.5t56 -227.5v-311q0 -65 13.5 -105.5t44.5 -61t68.5 -27.5 t98.5 -7h100v-113h-112q-99 0 -164.5 13.5t-113.5 48t-69.5 95.5t-21.5 155v307q0 147 -50.5 207t-197.5 86v121z" />
<glyph unicode="|" horiz-adv-x="614" d="M369 -481h-123v2068h123v-2068z" />
<glyph unicode="}" horiz-adv-x="954" d="M852 590q-147 -26 -197.5 -86t-50.5 -207v-307q0 -94 -21.5 -155t-69 -95.5t-113 -48t-164.5 -13.5h-113v113h100q61 0 98.5 7t69 27.5t45 61t13.5 105.5v311q0 150 54.5 228.5t196.5 117.5q-140 40 -195.5 120t-55.5 228v310q0 52 -10 88.5t-27 58t-46.5 33.5t-62 16 t-80.5 4h-100v113h113q99 0 164.5 -13.5t113.5 -47.5t69 -95t21 -155v-305q0 -147 50.5 -207t197.5 -86v-121z" />
<glyph unicode="~" d="M924 754l100 -27q-27 -111 -86 -173t-147 -62q-58 0 -146.5 31.5t-173 63t-133.5 31.5q-56 0 -86 -36t-49 -107l-101 27q27 111 86.5 173t147.5 62q47 0 112.5 -20t121 -43.5t117.5 -43.5t101 -20q56 0 86.5 36.5t49.5 107.5z" />
<glyph unicode="&#xa1;" horiz-adv-x="573" d="M240 573h94l65 -974h-225zM162 874q0 51 37 88t88 37t88 -37t37 -88t-37 -87.5t-88 -36.5t-88 36.5t-37 87.5z" />
<glyph unicode="&#xa2;" d="M571 -233v208q-88 10 -163.5 45t-135.5 93.5t-94.5 149t-34.5 202.5q0 138 46.5 249.5t144.5 186.5t237 92v221h107v-215q71 -3 148 -21.5t128 -51.5l-32 -123q-47 23 -115.5 39.5t-128.5 19.5v-751q72 1 150 20t122 45l27 -123q-47 -32 -130 -54.5t-169 -25.5v-206h-107 zM303 471q0 -145 70 -236t198 -116v735q-127 -27 -197.5 -130t-70.5 -253z" />
<glyph unicode="&#xa3;" d="M164 614v101h196q-53 139 -53 248q0 179 117 284t303 105q107 0 205 -25l-12 -139q-86 20 -187 20q-125 0 -194.5 -64.5t-69.5 -187.5q0 -43 10 -89t20 -73.5t31 -78.5h373v-101h-338q21 -72 21 -133q0 -98 -63.5 -186t-160.5 -148h607v-147h-834v72q147 82 218 191.5 t71 221.5q0 53 -27 129h-233z" />
<glyph unicode="&#xa4;" d="M918 618q0 -128 -58 -217l139 -139l-77 -78l-138 138q-87 -66 -225 -66q-134 0 -219 63l-135 -135l-78 78l139 139q-59 89 -59 217q0 130 61 222l-141 141l78 78l139 -141q86 65 215 65q134 0 223 -63l140 139l77 -78l-141 -141q60 -85 60 -222zM772 618q0 116 -55 181 t-158 65q-102 0 -153.5 -69.5t-51.5 -176.5t54.5 -175t152.5 -68q101 0 156 68t55 175z" />
<glyph unicode="&#xa5;" d="M186 596v100h238l-379 627h188l330 -590l338 590h178l-385 -627h234v-100h-287v-141h287v-101h-287v-354h-164v354h-291v101h291v141h-291z" />
<glyph unicode="&#xa6;" horiz-adv-x="614" d="M369 829h-123v758h123v-758zM369 -481h-123v757h123v-757z" />
<glyph unicode="&#xa7;" horiz-adv-x="991" d="M868 614q0 -113 -73.5 -186.5t-182.5 -97.5q80 -49 125 -107t45 -139q0 -73 -27 -129t-73.5 -89t-104 -49t-124.5 -16q-151 0 -281 68l27 127q44 -28 117.5 -49t140.5 -21q79 0 128.5 34.5t49.5 107.5q0 32 -22 62t-58 53.5t-82 49t-94 49.5t-94 55.5t-82 65.5t-58 80.5 t-22 100.5q0 112 73 187.5t181 100.5q-79 47 -123.5 105.5t-44.5 140.5q0 73 27 129t74 89t104.5 49t124.5 16q150 0 280 -68l-26 -127q-44 28 -117.5 49t-140.5 21q-79 0 -129 -34t-50 -107q0 -37 28 -70.5t73.5 -60.5t100 -54.5t109 -60t100 -69.5t73.5 -90t28 -116z M719 598q0 33 -15 61.5t-45 53t-60 42.5t-75 40q-110 -9 -181 -59.5t-71 -131.5q0 -33 14.5 -61.5t44.5 -53t59 -42.5t75 -41q110 9 182 60t72 132z" />
<glyph unicode="&#xa8;" horiz-adv-x="819" d="M197 1212q-44 0 -76.5 31t-32.5 74t32.5 73.5t76.5 30.5q43 0 75.5 -31t32.5 -73t-32.5 -73.5t-75.5 -31.5zM623 1212q-44 0 -76.5 31t-32.5 74t32.5 73.5t76.5 30.5q43 0 75.5 -31t32.5 -73t-32.5 -73.5t-75.5 -31.5z" />
<glyph unicode="&#xa9;" horiz-adv-x="1658" d="M862 285q-181 0 -291 101t-110 288q0 186 108 297.5t291 111.5q115 0 209 -51l-20 -114q-86 51 -183 51q-135 0 -207.5 -81t-72.5 -214q0 -135 77.5 -205t215.5 -70q110 0 194 43l12 -106q-41 -24 -103 -37.5t-120 -13.5zM1546 688q0 -147 -57 -280t-153 -228.5 t-228.5 -152t-278.5 -56.5q-195 0 -359.5 95.5t-260.5 260.5t-96 361q0 145 57 277.5t152.5 227.5t228 151.5t278.5 56.5t278.5 -56.5t228.5 -151.5t153 -227.5t57 -277.5zM1454 688q0 169 -83.5 313t-227.5 228t-314 84q-168 0 -312 -84t-228 -228t-84 -313 q0 -128 50 -244.5t133.5 -200t199 -133t241.5 -49.5q170 0 314 83.5t227.5 228t83.5 315.5z" />
<glyph unicode="&#xaa;" horiz-adv-x="770" d="M709 772v-78q-49 -18 -127 -18q-42 0 -65 20t-23 72q-34 -39 -90 -66.5t-119 -27.5q-85 0 -139 47t-54 131q0 42 15.5 76.5t46 59t65 42.5t84.5 31.5t91.5 22t97.5 16.5v53q0 31 -3.5 51t-14.5 41t-36 31t-65 10q-112 0 -234 -63l-22 106q57 33 136.5 52.5t141.5 19.5 q110 0 166.5 -51.5t56.5 -151.5v-379q0 -30 9.5 -38.5t36.5 -8.5h45zM225 856q0 -72 84 -72q50 0 105.5 33t77.5 64v127q-51 -9 -86 -16.5t-72 -19.5t-59 -27t-36 -37.5t-14 -51.5z" />
<glyph unicode="&#xab;" horiz-adv-x="1097" d="M276 487l279 -352l-90 -72l-363 424l363 424l90 -71zM676 487l278 -352l-90 -72l-362 424l362 424l90 -71z" />
<glyph unicode="&#xac;" d="M1014 870v-495h-111v389h-811v106h922z" />
<glyph unicode="&#xad;" horiz-adv-x="716" d="M72 451v122h573v-122h-573z" />
<glyph unicode="&#xae;" horiz-adv-x="1658" d="M1546 688q0 -147 -57 -280t-153 -228.5t-228.5 -152t-278.5 -56.5q-195 0 -359.5 95.5t-260.5 260.5t-96 361q0 145 57 277.5t152.5 227.5t228 151.5t278.5 56.5t278.5 -56.5t228.5 -151.5t153 -227.5t57 -277.5zM1454 688q0 169 -83.5 313t-227.5 228t-314 84 q-168 0 -312 -84t-228 -228t-84 -313q0 -128 50 -244.5t133.5 -200t199 -133t241.5 -49.5q170 0 314 83.5t227.5 228t83.5 315.5zM715 305h-119v760h252q112 0 178 -54.5t66 -158.5q0 -82 -42 -140.5t-128 -82.5q38 -18 77 -78l80 -131q23 -39 56 -39h32v-84q-32 -8 -65 -8 q-71 0 -123 80l-131 204q-26 43 -76 43h-57v-311zM715 963v-238h114q69 0 106.5 34t37.5 87q0 56 -35.5 86.5t-101.5 30.5h-121z" />
<glyph unicode="&#xaf;" horiz-adv-x="819" d="M686 1343v-122h-553v122h553z" />
<glyph unicode="&#xb0;" d="M354 1024q0 -101 60.5 -164t148.5 -63t148.5 63t60.5 164t-60.5 164t-148.5 63t-148.5 -63t-60.5 -164zM233 1024q0 147 95 237.5t235 90.5t235 -90.5t95 -237.5t-95 -236.5t-235 -89.5t-235 89.5t-95 236.5z" />
<glyph unicode="&#xb1;" d="M1024 631h-406v-363h-110v363h-406v106h406v361h110v-361h406v-106zM1024 0h-922v106h922v-106z" />
<glyph unicode="&#xb2;" horiz-adv-x="819" d="M82 670v63q107 78 186 144t144.5 134.5t99 131.5t33.5 119q0 129 -156 129q-116 0 -242 -97l-59 103q56 49 137.5 80.5t169.5 31.5q291 0 291 -245q0 -49 -19 -100.5t-48.5 -96t-78 -96t-93 -92t-107.5 -93.5h377l-8 -116h-627z" />
<glyph unicode="&#xb3;" horiz-adv-x="819" d="M377 653q-81 0 -157 28t-130 73l82 98q89 -82 211 -82q184 0 184 123q0 34 -14 58.5t-37.5 39t-59.5 23t-72.5 11.5t-84.5 3h-61v105q134 8 213 46t79 109q0 45 -38.5 75t-102.5 30q-62 0 -125.5 -26t-105.5 -64l-56 94q54 53 135 82.5t171 29.5q112 0 186 -54t74 -159 q0 -70 -44.5 -120t-121.5 -70q94 -12 148.5 -64t54.5 -141q0 -52 -18.5 -94t-50 -70.5t-74 -47.5t-89 -27.5t-96.5 -8.5z" />
<glyph unicode="&#xb4;" horiz-adv-x="819" d="M297 1143l-70 37l187 346l178 -41z" />
<glyph unicode="&#xb5;" horiz-adv-x="1101" d="M307 971v-647q0 -211 201 -211q86 0 164.5 43.5t122.5 97.5v717h155v-971h-155v104q-145 -133 -322 -133q-86 0 -170 54v-99q0 -97 15.5 -156.5t42 -89t75.5 -57.5l-61 -104q-223 55 -223 385v1067h155z" />
<glyph unicode="&#xb6;" horiz-adv-x="1337" d="M1225 1251h-172v-1423h-146v1425h-180v-1425h-145v723q-225 0 -342 107.5t-117 291.5q0 208 126 315t357 107h619v-121zM582 666v587q-153 0 -237.5 -72t-84.5 -225q0 -143 83.5 -216.5t238.5 -73.5z" />
<glyph unicode="&#xb7;" horiz-adv-x="512" d="M131 623q0 51 37 88t88 37t88 -37t37 -88t-37 -88t-88 -37t-88 37t-37 88z" />
<glyph unicode="&#xb8;" horiz-adv-x="819" d="M412 0h110l-112 -137q79 0 139.5 -41.5t60.5 -118.5q0 -88 -62 -136t-151 -48q-100 0 -190 43l24 73q67 -30 138 -30q45 0 67.5 21t22.5 55q0 41 -35.5 61t-93.5 20h-66l-14 37z" />
<glyph unicode="&#xb9;" horiz-adv-x="819" d="M705 670h-551v98l208 8v604l-208 -22v96l276 47h76v-725l199 -8v-98z" />
<glyph unicode="&#xba;" horiz-adv-x="839" d="M420 674q-151 0 -239.5 94t-88.5 268q0 168 85 266.5t243 98.5q157 0 242.5 -99.5t85.5 -263.5q0 -177 -88 -270.5t-240 -93.5zM420 776q95 0 148 73t53 187q0 118 -55 189t-146 71q-94 0 -147.5 -70t-53.5 -190q0 -114 53.5 -187t147.5 -73z" />
<glyph unicode="&#xbb;" horiz-adv-x="1097" d="M821 487l-278 353l90 71l362 -424l-362 -424l-90 72zM422 487l-279 353l90 71l363 -424l-363 -424l-90 72z" />
<glyph unicode="&#xbc;" horiz-adv-x="2048" d="M653 504h-551v98l209 8v604l-209 -22v96l277 47h76v-725l198 -8v-98zM623 -29l-99 70l971 1311l98 -70zM1671 0v213h-446v70l495 548h88v-507h138v-111h-138v-213h-137zM1671 610l-266 -286h266v286z" />
<glyph unicode="&#xbd;" horiz-adv-x="2048" d="M653 504h-551v98l209 8v604l-209 -22v96l277 47h76v-725l198 -8v-98zM567 -29l-98 70l971 1311l98 -70zM1311 0v63q107 78 186 144t144.5 134.5t99 131.5t33.5 119q0 129 -156 129q-118 0 -242 -96l-59 102q56 49 137.5 81t169.5 32q291 0 291 -246q0 -61 -26.5 -122.5 t-79.5 -124t-106.5 -113t-133.5 -117.5h377l-9 -117h-626z" />
<glyph unicode="&#xbe;" horiz-adv-x="2048" d="M633 -29l-98 70l970 1311l99 -70zM1671 0v213h-446v70l495 548h88v-507h138v-111h-138v-213h-137zM1671 610l-266 -286h266v286zM389 479q-81 0 -157 28t-130 73l82 98q89 -82 211 -82q91 0 138 31.5t47 91.5q0 42 -20.5 69.5t-60 41.5t-83.5 19t-105 5h-61v104 q133 8 213 46.5t80 109.5q0 45 -38.5 75t-103.5 30q-62 0 -125.5 -26t-105.5 -65l-55 95q54 53 134.5 82.5t170.5 29.5q112 0 186 -54t74 -159q0 -70 -44.5 -120t-121.5 -70q94 -12 148.5 -64t54.5 -141q0 -52 -18.5 -94t-50 -70.5t-74 -47.5t-89 -27.5t-96.5 -8.5z" />
<glyph unicode="&#xbf;" horiz-adv-x="778" d="M549 532q18 -56 18 -135q0 -60 -19 -110.5t-49 -86t-66.5 -67t-73 -60t-66.5 -57t-49 -66.5t-19 -81q0 -68 61.5 -116t135.5 -48q61 0 131 21.5t111 60.5l53 -119q-60 -52 -141 -75t-156 -23q-85 0 -155 25t-113.5 66.5t-67 92.5t-23.5 105q0 64 19.5 117.5t51 91 t69.5 70.5t76.5 63t70 61t51 71.5t19.5 88.5q0 66 -8 110h139zM596 874q0 -51 -37 -87.5t-88 -36.5t-88 36.5t-37 87.5t37 88t88 37t88 -37t37 -88z" />
<glyph unicode="&#xc0;" horiz-adv-x="1310" d="M1065 0l-147 393h-537l-150 -393h-170l545 1372h105l538 -1372h-184zM653 1102l-219 -570h432zM774 1546l-53 -59l-410 186l144 113z" />
<glyph unicode="&#xc1;" horiz-adv-x="1310" d="M1065 0l-147 393h-537l-150 -393h-170l545 1372h105l538 -1372h-184zM653 1102l-219 -570h432zM588 1487l-53 59l319 240l143 -113z" />
<glyph unicode="&#xc2;" horiz-adv-x="1310" d="M1065 0l-147 393h-537l-150 -393h-170l545 1372h105l538 -1372h-184zM653 1102l-219 -570h432zM612 1810h86l224 -288l-70 -35l-197 149l-196 -149l-70 35z" />
<glyph unicode="&#xc3;" horiz-adv-x="1310" d="M1065 0l-147 393h-537l-150 -393h-170l545 1372h105l538 -1372h-184zM653 1102l-219 -570h432zM877 1802l79 -14q-9 -115 -52 -183.5t-111 -68.5q-43 0 -149 45t-132 45q-33 0 -50.5 -30.5t-27.5 -86.5l-80 15q9 115 52.5 183.5t111.5 68.5q43 0 149 -45t132 -45 q33 0 50.5 30t27.5 86z" />
<glyph unicode="&#xc4;" horiz-adv-x="1310" d="M1065 0l-147 393h-537l-150 -393h-170l545 1372h105l538 -1372h-184zM653 1102l-219 -570h432zM442 1548q-44 0 -76 31t-32 74t32 73.5t76 30.5q43 0 76 -31t33 -73t-33 -73.5t-76 -31.5zM868 1548q-44 0 -76 31t-32 74t32 73.5t76 30.5q43 0 76 -31t33 -73t-33 -73.5 t-76 -31.5z" />
<glyph unicode="&#xc5;" horiz-adv-x="1310" d="M1065 0l-147 393h-537l-150 -393h-170l545 1372h105l538 -1372h-184zM653 1102l-219 -570h432zM854 1655q0 -77 -53.5 -136t-145.5 -59q-90 0 -146 55.5t-56 139.5q0 87 54.5 141.5t147.5 54.5q90 0 144.5 -57t54.5 -139zM748 1657q0 49 -26 75.5t-65 26.5q-48 0 -74 -26 t-26 -76q0 -101 98 -101q38 0 65.5 27t27.5 74z" />
<glyph unicode="&#xc6;" horiz-adv-x="1837" d="M956 0v393h-462l-254 -393h-189l899 1372h779v-137h-609v-444h490v-138h-490v-516h615v-137h-779zM584 530h372v586z" />
<glyph unicode="&#xc7;" horiz-adv-x="1294" d="M942 -297q0 -88 -62 -136t-151 -48q-100 0 -190 43l24 73q67 -30 137 -30q45 0 68 21t23 55q0 41 -35.5 61t-93.5 20h-66l-14 37l141 176q-284 20 -447 205.5t-163 487.5q0 341 187.5 537t496.5 196q100 0 203 -22.5t174 -57.5l-29 -156q-69 38 -159 62t-179 24 q-248 0 -384 -154.5t-136 -428.5q0 -253 146 -399t392 -146q95 0 189.5 25.5t154.5 62.5l23 -150q-68 -37 -166.5 -60t-194.5 -28l-90 -110q79 0 140 -41.5t61 -118.5z" />
<glyph unicode="&#xc8;" horiz-adv-x="1054" d="M174 0v1372h772v-137h-608v-444h489v-138h-489v-516h614v-137h-778zM690 1546l-53 -59l-410 186l144 113z" />
<glyph unicode="&#xc9;" horiz-adv-x="1054" d="M174 0v1372h772v-137h-608v-444h489v-138h-489v-516h614v-137h-778zM393 1487l-53 59l319 240l144 -113z" />
<glyph unicode="&#xca;" horiz-adv-x="1054" d="M174 0v1372h772v-137h-608v-444h489v-138h-489v-516h614v-137h-778zM516 1810h86l223 -288l-69 -35l-197 149l-197 -149l-69 35z" />
<glyph unicode="&#xcb;" horiz-adv-x="1054" d="M174 0v1372h772v-137h-608v-444h489v-138h-489v-516h614v-137h-778zM338 1548q-44 0 -76.5 31t-32.5 74t32.5 73.5t76.5 30.5q43 0 75.5 -31t32.5 -73t-32.5 -73.5t-75.5 -31.5zM764 1548q-44 0 -76.5 31t-32.5 74t32.5 73.5t76.5 30.5q43 0 75.5 -31t32.5 -73 t-32.5 -73.5t-75.5 -31.5z" />
<glyph unicode="&#xcc;" horiz-adv-x="512" d="M174 0v1372h164v-1372h-164zM369 1546l-54 -59l-409 186l143 113z" />
<glyph unicode="&#xcd;" horiz-adv-x="512" d="M174 0v1372h164v-1372h-164zM199 1487l-54 59l320 240l143 -113z" />
<glyph unicode="&#xce;" horiz-adv-x="512" d="M174 0v1372h164v-1372h-164zM213 1810h86l223 -288l-69 -35l-197 149l-197 -149l-69 35z" />
<glyph unicode="&#xcf;" horiz-adv-x="512" d="M174 0v1372h164v-1372h-164zM43 1548q-44 0 -76.5 31t-32.5 74t32.5 73.5t76.5 30.5q43 0 76 -31t33 -73t-33 -73.5t-76 -31.5zM469 1548q-44 0 -76.5 31t-32.5 74t32.5 73.5t76.5 30.5q43 0 76 -31t33 -73t-33 -73.5t-76 -31.5z" />
<glyph unicode="&#xd0;" horiz-adv-x="1484" d="M236 0v664h-185v110h185v598h438q151 0 270 -34.5t198.5 -94.5t132 -147t75 -187.5t22.5 -220.5q0 -109 -24 -207.5t-77 -187t-131 -153t-193.5 -102.5t-256.5 -38h-454zM399 1235v-461h299v-110h-299v-527h240q116 0 209.5 28.5t158 78.5t108 120t63.5 151t20 173 q0 257 -133.5 402t-411.5 145h-254z" />
<glyph unicode="&#xd1;" horiz-adv-x="1421" d="M174 0v1372h186l723 -991v991h164v-1372h-94l-815 1118v-1118h-164zM946 1802l80 -14q-9 -115 -52.5 -183.5t-111.5 -68.5q-43 0 -148.5 45t-131.5 45q-33 0 -50.5 -30.5t-27.5 -86.5l-80 15q9 115 52.5 183.5t111.5 68.5q43 0 148.5 -45t131.5 -45q33 0 50.5 30t27.5 86 z" />
<glyph unicode="&#xd2;" horiz-adv-x="1482" d="M739 -29q-127 0 -232 38.5t-177 105.5t-121.5 159t-72.5 196.5t-23 221.5q0 112 23 214.5t73 193.5t122.5 157.5t177 105t230.5 38.5q158 0 281 -56.5t198 -155t113.5 -224t38.5 -271.5q0 -119 -23.5 -225.5t-74 -198t-123.5 -158t-178 -104t-232 -37.5zM739 115 q147 0 251 76.5t153 205t49 297.5q0 167 -49 291.5t-152.5 197t-251.5 72.5q-111 0 -198 -44t-141 -122t-81.5 -178.5t-27.5 -218.5q0 -124 27.5 -228t81.5 -182.5t140.5 -122.5t198.5 -44zM948 1546l-53 -59l-410 186l144 113z" />
<glyph unicode="&#xd3;" horiz-adv-x="1482" d="M739 -29q-127 0 -232 38.5t-177 105.5t-121.5 159t-72.5 196.5t-23 221.5q0 112 23 214.5t73 193.5t122.5 157.5t177 105t230.5 38.5q158 0 281 -56.5t198 -155t113.5 -224t38.5 -271.5q0 -119 -23.5 -225.5t-74 -198t-123.5 -158t-178 -104t-232 -37.5zM739 115 q147 0 251 76.5t153 205t49 297.5q0 167 -49 291.5t-152.5 197t-251.5 72.5q-111 0 -198 -44t-141 -122t-81.5 -178.5t-27.5 -218.5q0 -124 27.5 -228t81.5 -182.5t140.5 -122.5t198.5 -44zM582 1487l-54 59l320 240l143 -113z" />
<glyph unicode="&#xd4;" horiz-adv-x="1482" d="M739 -29q-127 0 -232 38.5t-177 105.5t-121.5 159t-72.5 196.5t-23 221.5q0 112 23 214.5t73 193.5t122.5 157.5t177 105t230.5 38.5q158 0 281 -56.5t198 -155t113.5 -224t38.5 -271.5q0 -119 -23.5 -225.5t-74 -198t-123.5 -158t-178 -104t-232 -37.5zM739 115 q147 0 251 76.5t153 205t49 297.5q0 167 -49 291.5t-152.5 197t-251.5 72.5q-111 0 -198 -44t-141 -122t-81.5 -178.5t-27.5 -218.5q0 -124 27.5 -228t81.5 -182.5t140.5 -122.5t198.5 -44zM698 1810h86l224 -288l-70 -35l-197 149l-196 -149l-70 35z" />
<glyph unicode="&#xd5;" horiz-adv-x="1482" d="M739 -29q-127 0 -232 38.5t-177 105.5t-121.5 159t-72.5 196.5t-23 221.5q0 112 23 214.5t73 193.5t122.5 157.5t177 105t230.5 38.5q158 0 281 -56.5t198 -155t113.5 -224t38.5 -271.5q0 -119 -23.5 -225.5t-74 -198t-123.5 -158t-178 -104t-232 -37.5zM739 115 q147 0 251 76.5t153 205t49 297.5q0 167 -49 291.5t-152.5 197t-251.5 72.5q-111 0 -198 -44t-141 -122t-81.5 -178.5t-27.5 -218.5q0 -124 27.5 -228t81.5 -182.5t140.5 -122.5t198.5 -44zM963 1802l79 -14q-9 -115 -52 -183.5t-111 -68.5q-43 0 -149 45t-132 45 q-33 0 -50.5 -30.5t-27.5 -86.5l-80 15q9 115 52.5 183.5t111.5 68.5q43 0 149 -45t132 -45q33 0 50.5 30t27.5 86z" />
<glyph unicode="&#xd6;" horiz-adv-x="1482" d="M739 -29q-127 0 -232 38.5t-177 105.5t-121.5 159t-72.5 196.5t-23 221.5q0 112 23 214.5t73 193.5t122.5 157.5t177 105t230.5 38.5q158 0 281 -56.5t198 -155t113.5 -224t38.5 -271.5q0 -119 -23.5 -225.5t-74 -198t-123.5 -158t-178 -104t-232 -37.5zM739 115 q147 0 251 76.5t153 205t49 297.5q0 167 -49 291.5t-152.5 197t-251.5 72.5q-111 0 -198 -44t-141 -122t-81.5 -178.5t-27.5 -218.5q0 -124 27.5 -228t81.5 -182.5t140.5 -122.5t198.5 -44zM528 1548q-44 0 -76 31t-32 74t32 73.5t76 30.5q43 0 76 -31t33 -73t-33 -73.5 t-76 -31.5zM954 1548q-44 0 -76 31t-32 74t32 73.5t76 30.5q43 0 76 -31t33 -73t-33 -73.5t-76 -31.5z" />
<glyph unicode="&#xd7;" d="M938 920l-297 -299l297 -297l-78 -78l-297 297l-297 -297l-78 78l297 297l-297 299l78 77l297 -299l297 299z" />
<glyph unicode="&#xd8;" horiz-adv-x="1482" d="M739 -29q-219 0 -368 111l-111 -152h-147l170 232q-170 196 -170 530q0 112 23 214.5t73 193.5t122.5 157.5t177 105t230.5 38.5q221 0 373 -111l111 152h147l-170 -232q170 -194 170 -516q0 -119 -23.5 -225.5t-74 -198t-123.5 -158t-178 -104t-232 -37.5zM739 115 q147 0 251 76.5t153 205t49 297.5q0 226 -94 377l-633 -862q112 -94 274 -94zM291 692q0 -240 94 -389l633 858q-115 94 -279 94q-111 0 -198 -44t-141 -122t-81.5 -178.5t-27.5 -218.5z" />
<glyph unicode="&#xd9;" horiz-adv-x="1374" d="M688 -29q-113 0 -207.5 30.5t-165.5 89.5t-111 152t-40 212v917h164v-891q0 -176 93 -270t273 -94q177 0 265 93.5t88 270.5v891h163v-917q0 -228 -144 -356t-378 -128zM823 1546l-53 -59l-410 186l144 113z" />
<glyph unicode="&#xda;" horiz-adv-x="1374" d="M688 -29q-113 0 -207.5 30.5t-165.5 89.5t-111 152t-40 212v917h164v-891q0 -176 93 -270t273 -94q177 0 265 93.5t88 270.5v891h163v-917q0 -228 -144 -356t-378 -128zM596 1487l-53 59l319 240l144 -113z" />
<glyph unicode="&#xdb;" horiz-adv-x="1374" d="M688 -29q-113 0 -207.5 30.5t-165.5 89.5t-111 152t-40 212v917h164v-891q0 -176 93 -270t273 -94q177 0 265 93.5t88 270.5v891h163v-917q0 -228 -144 -356t-378 -128zM643 1810h86l223 -288l-69 -35l-197 149l-197 -149l-69 35z" />
<glyph unicode="&#xdc;" horiz-adv-x="1374" d="M688 -29q-113 0 -207.5 30.5t-165.5 89.5t-111 152t-40 212v917h164v-891q0 -176 93 -270t273 -94q177 0 265 93.5t88 270.5v891h163v-917q0 -228 -144 -356t-378 -128zM473 1548q-44 0 -76 31t-32 74t32 73.5t76 30.5q43 0 76 -31t33 -73t-33 -73.5t-76 -31.5zM899 1548 q-44 0 -76 31t-32 74t32 73.5t76 30.5q43 0 76 -31t33 -73t-33 -73.5t-76 -31.5z" />
<glyph unicode="&#xdd;" horiz-adv-x="1239" d="M535 0v549l-474 823h189l371 -676l378 676h179l-480 -823v-549h-163zM526 1487l-53 59l320 240l143 -113z" />
<glyph unicode="&#xde;" horiz-adv-x="1136" d="M338 1372v-287h235q210 0 330.5 -91.5t120.5 -276.5q0 -196 -137 -313t-402 -117h-147v-287h-164v1372h164zM338 948v-524h147q173 0 269 73.5t96 219.5q0 118 -82.5 174.5t-230.5 56.5h-199z" />
<glyph unicode="&#xdf;" horiz-adv-x="1255" d="M811 -29q-78 0 -167 23t-136 51l29 131q53 -31 131.5 -54.5t144.5 -23.5q96 0 150.5 39.5t54.5 100.5q0 58 -33.5 93t-144.5 91q-69 35 -110.5 60.5t-79 60.5t-54 76t-16.5 94q0 62 22.5 115t55.5 87t72.5 69t72.5 63t55.5 67.5t22.5 83.5q0 26 -8 49.5t-28.5 49 t-64.5 40.5t-106 15q-64 0 -115 -14.5t-83.5 -35t-56 -54t-35 -61.5t-18 -67t-7.5 -61t-1 -53v-1006h-155v844h-158v127h158v51q0 212 118.5 338.5t348.5 126.5q98 0 173 -25t117.5 -66.5t63 -88.5t20.5 -97q0 -81 -31.5 -143t-76 -100t-89.5 -71t-76.5 -73t-31.5 -88 q0 -53 36 -84t132 -78q70 -35 109.5 -59t80.5 -60.5t59 -81t18 -102.5q0 -130 -97 -214.5t-266 -84.5z" />
<glyph unicode="&#xe0;" horiz-adv-x="985" d="M909 88v-86q-70 -18 -157 -18q-59 0 -89 28t-34 92q-46 -53 -121 -93t-166 -40q-117 0 -191.5 61t-74.5 171q0 52 21 96.5t47 75t81 58.5t87.5 42.5t105.5 32t97 22t96 16.5q3 1 4.5 1t3.5 0.5l4 1t4 0.5v135q0 89 -37 133.5t-146 44.5q-143 0 -307 -82l-24 119 q82 47 189 73.5t194 26.5q286 0 286 -288v-555q0 -42 20 -55t60 -13h47zM233 207q0 -47 33.5 -76t85.5 -29q70 0 146 44t129 106v184q-91 -17 -157 -35.5t-122.5 -45t-85.5 -63.5t-29 -85zM641 1180l-70 -37l-295 342l179 41z" />
<glyph unicode="&#xe1;" horiz-adv-x="985" d="M909 88v-86q-70 -18 -157 -18q-59 0 -89 28t-34 92q-46 -53 -121 -93t-166 -40q-117 0 -191.5 61t-74.5 171q0 52 21 96.5t47 75t81 58.5t87.5 42.5t105.5 32t97 22t96 16.5q3 1 4.5 1t3.5 0.5l4 1t4 0.5v135q0 89 -37 133.5t-146 44.5q-143 0 -307 -82l-24 119 q82 47 189 73.5t194 26.5q286 0 286 -288v-555q0 -42 20 -55t60 -13h47zM233 207q0 -47 33.5 -76t85.5 -29q70 0 146 44t129 106v184q-91 -17 -157 -35.5t-122.5 -45t-85.5 -63.5t-29 -85zM391 1143l-69 37l186 346l178 -41z" />
<glyph unicode="&#xe2;" horiz-adv-x="985" d="M909 88v-86q-70 -18 -157 -18q-59 0 -89 28t-34 92q-46 -53 -121 -93t-166 -40q-117 0 -191.5 61t-74.5 171q0 52 21 96.5t47 75t81 58.5t87.5 42.5t105.5 32t97 22t96 16.5q3 1 4.5 1t3.5 0.5l4 1t4 0.5v135q0 89 -37 133.5t-146 44.5q-143 0 -307 -82l-24 119 q82 47 189 73.5t194 26.5q286 0 286 -288v-555q0 -42 20 -55t60 -13h47zM233 207q0 -47 33.5 -76t85.5 -29q70 0 146 44t129 106v184q-91 -17 -157 -35.5t-122.5 -45t-85.5 -63.5t-29 -85zM414 1520h86l223 -342l-70 -35l-196 192l-197 -192l-70 35z" />
<glyph unicode="&#xe3;" horiz-adv-x="985" d="M909 88v-86q-70 -18 -157 -18q-59 0 -89 28t-34 92q-46 -53 -121 -93t-166 -40q-117 0 -191.5 61t-74.5 171q0 52 21 96.5t47 75t81 58.5t87.5 42.5t105.5 32t97 22t96 16.5q3 1 4.5 1t3.5 0.5l4 1t4 0.5v135q0 89 -37 133.5t-146 44.5q-143 0 -307 -82l-24 119 q82 47 189 73.5t194 26.5q286 0 286 -288v-555q0 -42 20 -55t60 -13h47zM233 207q0 -47 33.5 -76t85.5 -29q70 0 146 44t129 106v184q-91 -17 -157 -35.5t-122.5 -45t-85.5 -63.5t-29 -85zM676 1477l80 -15q-9 -115 -52.5 -183.5t-111.5 -68.5q-43 0 -149 45t-132 45 q-33 0 -50.5 -30t-27.5 -86l-79 14q9 115 52 183.5t111 68.5q43 0 149 -45t132 -45q33 0 50.5 30.5t27.5 86.5z" />
<glyph unicode="&#xe4;" horiz-adv-x="985" d="M909 88v-86q-70 -18 -157 -18q-59 0 -89 28t-34 92q-46 -53 -121 -93t-166 -40q-117 0 -191.5 61t-74.5 171q0 52 21 96.5t47 75t81 58.5t87.5 42.5t105.5 32t97 22t96 16.5q3 1 4.5 1t3.5 0.5l4 1t4 0.5v135q0 89 -37 133.5t-146 44.5q-143 0 -307 -82l-24 119 q82 47 189 73.5t194 26.5q286 0 286 -288v-555q0 -42 20 -55t60 -13h47zM233 207q0 -47 33.5 -76t85.5 -29q70 0 146 44t129 106v184q-91 -17 -157 -35.5t-122.5 -45t-85.5 -63.5t-29 -85zM254 1212q-44 0 -76.5 31t-32.5 74t32.5 73.5t76.5 30.5q43 0 75.5 -31t32.5 -73 t-32.5 -73.5t-75.5 -31.5zM680 1212q-44 0 -76.5 31t-32.5 74t32.5 73.5t76.5 30.5q43 0 75.5 -31t32.5 -73t-32.5 -73.5t-75.5 -31.5z" />
<glyph unicode="&#xe5;" horiz-adv-x="985" d="M909 88v-86q-70 -18 -157 -18q-59 0 -89 28t-34 92q-46 -53 -121 -93t-166 -40q-117 0 -191.5 61t-74.5 171q0 52 21 96.5t47 75t81 58.5t87.5 42.5t105.5 32t97 22t96 16.5q3 1 4.5 1t3.5 0.5l4 1t4 0.5v135q0 89 -37 133.5t-146 44.5q-143 0 -307 -82l-24 119 q82 47 189 73.5t194 26.5q286 0 286 -288v-555q0 -42 20 -55t60 -13h47zM233 207q0 -47 33.5 -76t85.5 -29q70 0 146 44t129 106v184q-91 -17 -157 -35.5t-122.5 -45t-85.5 -63.5t-29 -85zM672 1329q0 -77 -53 -135.5t-146 -58.5q-90 0 -146.5 55t-56.5 139q0 87 55 142 t148 55q90 0 144.5 -57.5t54.5 -139.5zM565 1331q0 49 -25.5 76t-64.5 27q-48 0 -74 -26.5t-26 -76.5q0 -100 98 -100q38 0 65 26.5t27 73.5z" />
<glyph unicode="&#xe6;" horiz-adv-x="1552" d="M1417 193l27 -123q-58 -43 -149 -71t-191 -28q-131 0 -234.5 51.5t-164.5 151.5q-158 -203 -367 -203q-115 0 -188.5 62.5t-73.5 169.5q0 52 21 96.5t47 75t81 58.5t87.5 42.5t105.5 32t97 22t96 16.5q3 1 4.5 1t3.5 0.5l4 1t4 0.5v135q0 89 -37 133.5t-146 44.5 q-143 0 -307 -82l-24 119q78 45 184 72.5t190 27.5q211 0 271 -145q130 145 334 145q364 0 364 -366q0 -59 -8 -125h-664v-41q0 -183 95 -270.5t251 -87.5q73 0 150 23.5t137 60.5zM805 627h485q4 24 4 43q0 204 -202 204q-111 0 -184 -64t-103 -183zM233 207 q0 -48 32 -76.5t87 -28.5q83 0 171 57t132 128q-21 68 -24 149q-91 -16 -158 -34.5t-124 -45t-86.5 -64t-29.5 -85.5z" />
<glyph unicode="&#xe7;" horiz-adv-x="968" d="M719 -297q0 -88 -62 -136t-151 -48q-101 0 -191 43l25 73q68 -30 137 -30q45 0 67.5 21t22.5 55q0 41 -35.5 61t-93.5 20h-65l-15 37l142 176q-86 10 -158 45t-128 94t-87 148.5t-31 202.5q0 114 29.5 209.5t87.5 169t153.5 114.5t219.5 41q68 0 142.5 -18.5t131.5 -54.5 l-33 -123q-116 59 -239 59q-163 0 -247.5 -107t-84.5 -284q0 -174 87 -267t257 -93q143 0 256 65l27 -123q-109 -73 -277 -82l-88 -108q79 0 140 -41.5t61 -118.5z" />
<glyph unicode="&#xe8;" horiz-adv-x="1021" d="M887 193l26 -123q-58 -43 -149 -71t-191 -28q-210 0 -343.5 129.5t-133.5 366.5q0 246 132 389t333 143q365 0 365 -366q0 -59 -8 -125h-664v-41q0 -183 95 -270.5t251 -87.5q73 0 150 23.5t137 60.5zM274 627h486q4 24 4 43q0 204 -203 204q-111 0 -184 -64t-103 -183z M641 1180l-70 -37l-295 342l179 41z" />
<glyph unicode="&#xe9;" horiz-adv-x="1021" d="M887 193l26 -123q-58 -43 -149 -71t-191 -28q-210 0 -343.5 129.5t-133.5 366.5q0 246 132 389t333 143q365 0 365 -366q0 -59 -8 -125h-664v-41q0 -183 95 -270.5t251 -87.5q73 0 150 23.5t137 60.5zM274 627h486q4 24 4 43q0 204 -203 204q-111 0 -184 -64t-103 -183z M498 1143l-70 37l186 346l179 -41z" />
<glyph unicode="&#xea;" horiz-adv-x="1021" d="M887 193l26 -123q-58 -43 -149 -71t-191 -28q-210 0 -343.5 129.5t-133.5 366.5q0 246 132 389t333 143q365 0 365 -366q0 -59 -8 -125h-664v-41q0 -183 95 -270.5t251 -87.5q73 0 150 23.5t137 60.5zM274 627h486q4 24 4 43q0 204 -203 204q-111 0 -184 -64t-103 -183z M508 1520h86l223 -342l-69 -35l-197 192l-197 -192l-69 35z" />
<glyph unicode="&#xeb;" horiz-adv-x="1021" d="M887 193l26 -123q-58 -43 -149 -71t-191 -28q-210 0 -343.5 129.5t-133.5 366.5q0 246 132 389t333 143q365 0 365 -366q0 -59 -8 -125h-664v-41q0 -183 95 -270.5t251 -87.5q73 0 150 23.5t137 60.5zM274 627h486q4 24 4 43q0 204 -203 204q-111 0 -184 -64t-103 -183z M356 1212q-44 0 -76 31t-32 74t32 73.5t76 30.5q43 0 76 -31t33 -73t-33 -73.5t-76 -31.5zM782 1212q-44 0 -76 31t-32 74t32 73.5t76 30.5q43 0 76 -31t33 -73t-33 -73.5t-76 -31.5z" />
<glyph unicode="&#xec;" horiz-adv-x="458" d="M152 0v969l155 30v-999h-155zM324 1180l-70 -37l-295 342l178 41z" />
<glyph unicode="&#xed;" horiz-adv-x="458" d="M152 0v969l155 30v-999h-155zM236 1143l-70 37l186 346l178 -41z" />
<glyph unicode="&#xee;" horiz-adv-x="458" d="M152 0v969l155 30v-999h-155zM186 1520h86l224 -342l-70 -35l-197 192l-196 -192l-70 35z" />
<glyph unicode="&#xef;" horiz-adv-x="458" d="M152 0v969l155 30v-999h-155zM16 1212q-44 0 -76 31t-32 74t32 73.5t76 30.5q43 0 76 -31t33 -73t-33 -73.5t-76 -31.5zM442 1212q-44 0 -76 31t-32 74t32 73.5t76 30.5q43 0 76 -31t33 -73t-33 -73.5t-76 -31.5z" />
<glyph unicode="&#xf0;" horiz-adv-x="1091" d="M285 1053v116l202 86q-106 73 -221 113l47 135q183 -54 332 -180l180 78v-117l-96 -41q260 -277 260 -676q0 -127 -29 -234.5t-84.5 -188.5t-143 -127t-197.5 -46q-194 0 -316.5 135.5t-122.5 354.5q0 220 128 362t323 142q129 0 215 -39q-64 144 -180 254zM535 100 q63 0 113 26t83.5 70.5t56 106.5t32 130t9.5 145q0 96 -20 198q-96 55 -223 55q-160 0 -244 -101t-84 -265q0 -160 74.5 -262.5t202.5 -102.5z" />
<glyph unicode="&#xf1;" horiz-adv-x="1110" d="M152 0v969l155 30v-137q68 62 155.5 99.5t180.5 37.5q156 0 239 -89.5t83 -245.5v-664h-156v641q0 98 -53.5 156.5t-153.5 58.5q-80 0 -157.5 -39.5t-137.5 -99.5v-717h-155zM774 1477l80 -15q-9 -115 -52.5 -183.5t-111.5 -68.5q-43 0 -148.5 45t-131.5 45 q-33 0 -50.5 -30t-27.5 -86l-80 14q9 115 52.5 183.5t111.5 68.5q43 0 148.5 -45t131.5 -45q33 0 50.5 30.5t27.5 86.5z" />
<glyph unicode="&#xf2;" horiz-adv-x="1118" d="M559 98q145 0 222 106t77 281q0 178 -81 282.5t-218 104.5q-141 0 -220 -103.5t-79 -283.5q0 -174 77.5 -280.5t221.5 -106.5zM559 -29q-210 0 -336.5 140t-126.5 374q0 149 51 263.5t157.5 182.5t254.5 68t254.5 -68t157.5 -182.5t51 -263.5q0 -235 -126 -374.5 t-337 -139.5zM696 1180l-69 -37l-295 342l178 41z" />
<glyph unicode="&#xf3;" horiz-adv-x="1118" d="M559 98q145 0 222 106t77 281q0 178 -81 282.5t-218 104.5q-141 0 -220 -103.5t-79 -283.5q0 -174 77.5 -280.5t221.5 -106.5zM559 -29q-210 0 -336.5 140t-126.5 374q0 149 51 263.5t157.5 182.5t254.5 68t254.5 -68t157.5 -182.5t51 -263.5q0 -235 -126 -374.5 t-337 -139.5zM457 1143l-70 37l186 346l179 -41z" />
<glyph unicode="&#xf4;" horiz-adv-x="1118" d="M559 98q145 0 222 106t77 281q0 178 -81 282.5t-218 104.5q-141 0 -220 -103.5t-79 -283.5q0 -174 77.5 -280.5t221.5 -106.5zM559 -29q-210 0 -336.5 140t-126.5 374q0 149 51 263.5t157.5 182.5t254.5 68t254.5 -68t157.5 -182.5t51 -263.5q0 -235 -126 -374.5 t-337 -139.5zM516 1520h86l223 -342l-69 -35l-197 192l-197 -192l-69 35z" />
<glyph unicode="&#xf5;" horiz-adv-x="1118" d="M559 98q145 0 222 106t77 281q0 178 -81 282.5t-218 104.5q-141 0 -220 -103.5t-79 -283.5q0 -174 77.5 -280.5t221.5 -106.5zM559 -29q-210 0 -336.5 140t-126.5 374q0 149 51 263.5t157.5 182.5t254.5 68t254.5 -68t157.5 -182.5t51 -263.5q0 -235 -126 -374.5 t-337 -139.5zM780 1477l80 -15q-9 -115 -52.5 -183.5t-111.5 -68.5q-43 0 -148.5 45t-131.5 45q-33 0 -50.5 -30t-27.5 -86l-80 14q9 115 52.5 183.5t111.5 68.5q43 0 148.5 -45t131.5 -45q33 0 50.5 30.5t27.5 86.5z" />
<glyph unicode="&#xf6;" horiz-adv-x="1118" d="M559 98q145 0 222 106t77 281q0 178 -81 282.5t-218 104.5q-141 0 -220 -103.5t-79 -283.5q0 -174 77.5 -280.5t221.5 -106.5zM559 -29q-210 0 -336.5 140t-126.5 374q0 149 51 263.5t157.5 182.5t254.5 68t254.5 -68t157.5 -182.5t51 -263.5q0 -235 -126 -374.5 t-337 -139.5zM346 1212q-44 0 -76 31t-32 74t32 73.5t76 30.5q43 0 76 -31t33 -73t-33 -73.5t-76 -31.5zM772 1212q-44 0 -76 31t-32 74t32 73.5t76 30.5q43 0 76 -31t33 -73t-33 -73.5t-76 -31.5z" />
<glyph unicode="&#xf7;" d="M1024 569h-922v107h922v-107zM451 950q0 46 33 79.5t79 33.5t79.5 -33.5t33.5 -79.5t-33.5 -79t-79.5 -33t-79 33t-33 79zM451 295q0 46 33 79.5t79 33.5t79.5 -33.5t33.5 -79.5t-33.5 -79.5t-79.5 -33.5t-79 33.5t-33 79.5z" />
<glyph unicode="&#xf8;" horiz-adv-x="1118" d="M559 -29q-141 0 -252 68l-63 -90h-140l117 162q-125 141 -125 374q0 149 51 263.5t157.5 182.5t254.5 68q145 0 254 -67l64 90h139l-117 -164q123 -138 123 -373t-126 -374.5t-337 -139.5zM260 485q0 -145 53 -245l416 577q-74 55 -170 55q-141 0 -220 -103.5t-79 -283.5 zM559 98q145 0 222 106t77 281q0 143 -55 242l-414 -575q69 -54 170 -54z" />
<glyph unicode="&#xf9;" horiz-adv-x="1081" d="M930 971v-971h-156v104q-151 -133 -336 -133q-147 0 -227 90t-80 265v645h156v-652q0 -113 48 -161.5t138 -48.5q83 0 163 40t138 105v717h156zM606 1180l-69 -37l-295 342l178 41z" />
<glyph unicode="&#xfa;" horiz-adv-x="1081" d="M930 971v-971h-156v104q-151 -133 -336 -133q-147 0 -227 90t-80 265v645h156v-652q0 -113 48 -161.5t138 -48.5q83 0 163 40t138 105v717h156zM487 1143l-69 37l186 346l178 -41z" />
<glyph unicode="&#xfb;" horiz-adv-x="1081" d="M930 971v-971h-156v104q-151 -133 -336 -133q-147 0 -227 90t-80 265v645h156v-652q0 -113 48 -161.5t138 -48.5q83 0 163 40t138 105v717h156zM483 1520h86l224 -342l-70 -35l-197 192l-196 -192l-70 35z" />
<glyph unicode="&#xfc;" horiz-adv-x="1081" d="M930 971v-971h-156v104q-151 -133 -336 -133q-147 0 -227 90t-80 265v645h156v-652q0 -113 48 -161.5t138 -48.5q83 0 163 40t138 105v717h156zM315 1212q-44 0 -76 31t-32 74t32 73.5t76 30.5q43 0 76 -31t33 -73t-33 -73.5t-76 -31.5zM741 1212q-44 0 -76 31t-32 74 t32 73.5t76 30.5q43 0 76 -31t33 -73t-33 -73.5t-76 -31.5z" />
<glyph unicode="&#xfd;" horiz-adv-x="1024" d="M969 971l-400 -1094q-19 -54 -40.5 -98.5t-56 -95t-75 -84.5t-98.5 -57t-125 -23q-84 0 -149 26l26 121q53 -16 123 -16q97 0 163.5 90.5t127.5 269.5l-404 961h177l305 -760l254 760h172zM471 1143l-70 37l187 346l178 -41z" />
<glyph unicode="&#xfe;" horiz-adv-x="1112" d="M307 23v-476h-155v1903l155 37v-623q147 135 309 135q185 0 292.5 -136.5t107.5 -356.5q0 -255 -128 -395t-339 -140q-121 0 -242 52zM594 858q-78 0 -155 -38.5t-132 -102.5v-545q98 -66 242 -66q141 0 224 97.5t83 300.5q0 166 -67 260t-195 94z" />
<glyph unicode="&#xff;" horiz-adv-x="1024" d="M969 971l-400 -1094q-19 -54 -40.5 -98.5t-56 -95t-75 -84.5t-98.5 -57t-125 -23q-84 0 -149 26l26 121q53 -16 123 -16q97 0 163.5 90.5t127.5 269.5l-404 961h177l305 -760l254 760h172zM322 1212q-44 0 -76.5 31t-32.5 74t32.5 73.5t76.5 30.5q43 0 75.5 -31t32.5 -73 t-32.5 -73.5t-75.5 -31.5zM748 1212q-44 0 -76.5 31t-32.5 74t32.5 73.5t76.5 30.5q43 0 75.5 -31t32.5 -73t-32.5 -73.5t-75.5 -31.5z" />
<glyph unicode="&#x152;" horiz-adv-x="1785" d="M748 0q-162 0 -285 50t-199 142t-113.5 215.5t-37.5 276.5q0 113 22.5 213t71 187.5t120.5 151t177.5 100t234.5 36.5h938v-137h-608v-444h490v-138h-490v-516h614v-137h-935zM291 684q0 -257 123.5 -403t353.5 -146h137v1102h-155q-114 0 -202.5 -42.5t-144 -118.5 t-84 -175t-28.5 -217z" />
<glyph unicode="&#x153;" horiz-adv-x="1787" d="M559 -29q-210 0 -336.5 140t-126.5 374q0 149 51 263.5t157.5 182.5t254.5 68q272 0 389 -219q60 108 159 163.5t220 55.5q365 0 365 -366q0 -51 -9 -125h-663v-37q0 -74 18 -136.5t56 -114.5t105.5 -81.5t158.5 -29.5q159 0 295 84l26 -123q-57 -43 -150 -71t-202 -28 q-120 0 -224.5 52.5t-162.5 154.5q-58 -99 -155.5 -153t-225.5 -54zM559 98q145 0 222 106t77 281q0 178 -81 282.5t-218 104.5q-141 0 -220 -103.5t-79 -283.5q0 -174 77.5 -280.5t221.5 -106.5zM1040 627h486q4 24 4 43q0 204 -203 204q-108 0 -183 -63.5t-104 -183.5z " />
<glyph unicode="&#x178;" horiz-adv-x="1239" d="M535 0v549l-474 823h189l371 -676l378 676h179l-480 -823v-549h-163zM410 1548q-44 0 -76.5 31t-32.5 74t32.5 73.5t76.5 30.5q43 0 75.5 -31t32.5 -73t-32.5 -73.5t-75.5 -31.5zM836 1548q-44 0 -76.5 31t-32.5 74t32.5 73.5t76.5 30.5q43 0 75.5 -31t32.5 -73 t-32.5 -73.5t-75.5 -31.5z" />
<glyph unicode="&#x2c6;" horiz-adv-x="819" d="M367 1520h86l223 -342l-70 -35l-196 192l-197 -192l-70 35z" />
<glyph unicode="&#x2dc;" horiz-adv-x="819" d="M631 1477l80 -15q-9 -115 -52.5 -183.5t-111.5 -68.5q-43 0 -149 45t-132 45q-33 0 -50.5 -30t-27.5 -86l-79 14q9 115 52 183.5t111 68.5q43 0 149 -45t132 -45q33 0 50.5 30.5t27.5 86.5z" />
<glyph unicode="&#x2000;" horiz-adv-x="925" />
<glyph unicode="&#x2001;" horiz-adv-x="1851" />
<glyph unicode="&#x2002;" horiz-adv-x="925" />
<glyph unicode="&#x2003;" horiz-adv-x="1851" />
<glyph unicode="&#x2004;" horiz-adv-x="617" />
<glyph unicode="&#x2005;" horiz-adv-x="462" />
<glyph unicode="&#x2006;" horiz-adv-x="308" />
<glyph unicode="&#x2007;" horiz-adv-x="308" />
<glyph unicode="&#x2008;" horiz-adv-x="231" />
<glyph unicode="&#x2009;" horiz-adv-x="370" />
<glyph unicode="&#x200a;" horiz-adv-x="102" />
<glyph unicode="&#x2010;" horiz-adv-x="716" d="M72 451v122h573v-122h-573z" />
<glyph unicode="&#x2011;" horiz-adv-x="716" d="M72 451v122h573v-122h-573z" />
<glyph unicode="&#x2012;" horiz-adv-x="716" d="M72 451v122h573v-122h-573z" />
<glyph unicode="&#x2013;" horiz-adv-x="1228" d="M72 451v122h1085v-122h-1085z" />
<glyph unicode="&#x2014;" horiz-adv-x="1843" d="M72 451v122h1700v-122h-1700z" />
<glyph unicode="&#x2018;" horiz-adv-x="491" d="M309 1401l70 -49q-107 -140 -107 -265q0 -70 31 -149h-160q-20 53 -20 115q0 88 52.5 179t133.5 169z" />
<glyph unicode="&#x2019;" horiz-adv-x="489" d="M182 909l-69 52q104 141 104 264q0 68 -31 147h160q21 -52 21 -112q0 -86 -52.5 -178.5t-132.5 -172.5z" />
<glyph unicode="&#x201a;" horiz-adv-x="489" d="M162 -254l-70 51q105 142 105 264q0 69 -31 148h160q20 -50 20 -113q0 -86 -52 -178t-132 -172z" />
<glyph unicode="&#x201c;" horiz-adv-x="806" d="M309 1401l70 -49q-107 -140 -107 -265q0 -70 31 -149h-160q-20 53 -20 115q0 88 52.5 179t133.5 169zM625 1401l69 -51q-104 -141 -104 -265q0 -68 31 -147h-160q-21 53 -21 113q0 86 52.5 178t132.5 172z" />
<glyph unicode="&#x201d;" horiz-adv-x="806" d="M498 909l-70 49q107 140 107 265q0 70 -31 149h160q20 -53 20 -115q0 -88 -52.5 -179t-133.5 -169zM182 909l-69 52q104 141 104 264q0 68 -31 147h160q21 -52 21 -112q0 -86 -52.5 -178.5t-132.5 -172.5z" />
<glyph unicode="&#x201e;" horiz-adv-x="806" d="M477 -254l-69 49q106 139 106 264q0 71 -31 150h160q21 -56 21 -115q0 -88 -52.5 -179t-134.5 -169zM162 -254l-70 51q105 142 105 264q0 69 -31 148h160q20 -50 20 -113q0 -86 -52 -178t-132 -172z" />
<glyph unicode="&#x2022;" horiz-adv-x="819" d="M408 350q-115 0 -193 79t-78 192q0 114 78 193t193 79q116 0 194 -78.5t78 -193.5q0 -113 -78 -192t-194 -79z" />
<glyph unicode="&#x2026;" horiz-adv-x="1536" d="M131 96q0 51 37 88t88 37t88 -37t37 -88t-37 -88t-88 -37t-88 37t-37 88zM643 96q0 51 37 88t88 37t88 -37t37 -88t-37 -88t-88 -37t-88 37t-37 88zM1155 96q0 51 37 88t88 37t88 -37t37 -88t-37 -88t-88 -37t-88 37t-37 88z" />
<glyph unicode="&#x202f;" horiz-adv-x="370" />
<glyph unicode="&#x2039;" horiz-adv-x="698" d="M276 487l279 -352l-90 -72l-363 424l363 424l90 -71z" />
<glyph unicode="&#x203a;" horiz-adv-x="698" d="M422 487l-279 353l90 71l363 -424l-363 -424l-90 72z" />
<glyph unicode="&#x205f;" horiz-adv-x="462" />
<glyph unicode="&#x20ac;" d="M96 733v101h158q16 108 52.5 199t94 164t144 114t192.5 41q87 0 153 -17.5t132 -58.5l-43 -141q-103 73 -236 73q-134 0 -216.5 -102t-110.5 -272h422v-101h-432q-3 -34 -3 -65q0 -38 3 -76h432v-100h-422q27 -179 110 -278t215 -99q133 0 250 75l35 -137 q-73 -48 -142 -65t-159 -17q-104 0 -187.5 40.5t-140 113t-92 164.5t-51.5 203h-158v100h148q-2 25 -2 76q0 42 2 65h-148z" />
<glyph unicode="&#x2122;" horiz-adv-x="1851" d="M350 612v660h-268v100h653v-100h-272v-660h-113zM909 612v760h131l275 -584l266 584h127v-760h-115v545l-254 -545h-59l-258 545v-545h-113z" />
<glyph unicode="&#x25fc;" horiz-adv-x="972" d="M0 973h973v-973h-973v973z" />
<glyph unicode="&#xfb01;" horiz-adv-x="1132" d="M45 844v127h158v88q0 107 32 191.5t86 134.5t121.5 76t143.5 26q46 0 84 -10l-17 -123h-24q-136 0 -203.5 -68t-67.5 -225v-90h260v-127h-260v-844h-155v844h-158zM825 0v969l156 30v-999h-156zM903 1206q-47 0 -81 32.5t-34 78.5t34 78t81 32q46 0 80.5 -32.5 t34.5 -77.5t-34.5 -78t-80.5 -33z" />
<glyph unicode="&#xfb02;" horiz-adv-x="1132" d="M45 844v127h158v88q0 107 32 191.5t86 134.5t121.5 76t143.5 26q46 0 84 -10l-17 -123h-24q-136 0 -203.5 -68t-67.5 -225v-90h260v-127h-260v-844h-155v844h-158zM825 0v1450l156 37v-1487h-156z" />
</font>
</defs>
</svg>
